<svg width="1200" height="630" viewBox="0 0 1200 630" fill="none" xmlns="http://www.w3.org/2000/svg" role="img" aria-label="Unified Error Handling documentation">
  <defs>
    <linearGradient id="ueh-bg" x1="0" y1="0" x2="1200" y2="630" gradientUnits="userSpaceOnUse">
      <stop stop-color="#0b1220"/>
      <stop offset="1" stop-color="#1b0b14"/>
    </linearGradient>
    <linearGradient id="ueh-badge" x1="96" y1="210" x2="240" y2="354" gradientUnits="userSpaceOnUse">
      <stop stop-color="#fb7185"/>
      <stop offset="0.55" stop-color="#e11d48"/>
      <stop offset="1" stop-color="#9f1239"/>
    </linearGradient>
    <linearGradient id="ueh-accent" x1="96" y1="0" x2="900" y2="0" gradientUnits="userSpaceOnUse">
      <stop stop-color="#fb7185"/>
      <stop offset="1" stop-color="#e11d48"/>
    </linearGradient>
  </defs>
  <rect width="1200" height="630" fill="url(#ueh-bg)"/>
  <rect x="0" y="0" width="1200" height="6" fill="url(#ueh-accent)"/>

  <!-- Badge -->
  <rect x="96" y="210" width="144" height="144" rx="36" fill="url(#ueh-badge)"/>
  <path d="M168 244l32 12v23.6c0 21.6-13.2 36.8-32 43.2-18.8-6.4-32-21.6-32-43.2V256l32-12z" fill="#ffffff" fill-opacity="0.15" stroke="#ffffff" stroke-width="5" stroke-linejoin="round"/>
  <rect x="162.5" y="266" width="11" height="30" rx="5.5" fill="#ffffff"/>
  <circle cx="168" cy="310" r="6.6" fill="#ffffff"/>

  <!-- Text -->
  <text x="288" y="266" font-family="Inter, system-ui, -apple-system, Segoe UI, Roboto, sans-serif" font-size="66" font-weight="800" fill="#ffffff">Unified Error</text>
  <text x="288" y="338" font-family="Inter, system-ui, -apple-system, Segoe UI, Roboto, sans-serif" font-size="66" font-weight="800" fill="#fb7185">Handling</text>
  <text x="96" y="430" font-family="Inter, system-ui, -apple-system, Segoe UI, Roboto, sans-serif" font-size="30" font-weight="500" fill="#cbd5e1">Zero-dependency error tracking with dynamic adapter loading.</text>
  <text x="96" y="474" font-family="Inter, system-ui, -apple-system, Segoe UI, Roboto, sans-serif" font-size="30" font-weight="500" fill="#94a3b8">Sentry · Firebase · Datadog · Bugsnag · Rollbar · LogRocket · Raygun · AppCenter</text>

  <text x="96" y="566" font-family="Inter, system-ui, -apple-system, Segoe UI, Roboto, sans-serif" font-size="26" font-weight="600" fill="#e2e8f0">npmjs.com/package/unified-error-handling</text>
  <text x="96" y="600" font-family="Inter, system-ui, -apple-system, Segoe UI, Roboto, sans-serif" font-size="24" font-weight="500" fill="#94a3b8">Built by Ahsan Mahmood · aoneahsan.com</text>
</svg>
